# xmcd
#
# Track frame offsets:
#	182
#	18025
#	34787
#	49517
#	64925
#	82632
#	99867
#	117845
#	136372
#	152020
#	169680
#	184607
#
# Disc length: 2613 seconds
#
# Revision: 1
# Processed by: cddbd v1.5.2PL0 Copyright (c) Steve Scherf et al.
# Submitted via: EasyCDDAExtractor 15.3.0.1
#
DISCID=820a330c
DTITLE=Daniela Romo - Amor Prohibido
DYEAR=1984
DGENRE=Latin
TTITLE0=Yo No Te Pido La Luna (Non Voglio Mica La Luna)
TTITLE1=Ya No Somos Amantes
TTITLE2=Sola
TTITLE3=Amor Prohibido
TTITLE4=Una Cancion
TTITLE5=Jovenes
TTITLE6=La Fuerza De Un Hombre
TTITLE7=Solamente Amigas
TTITLE8=Cadenas
TTITLE9=Enamorada De Ti
TTITLE10=Ay, Ay, Ay
TTITLE11=Hoy Te He Visto En La Terraza De Un Bar
EXTD=YEAR: 1985
EXTT0=
EXTT1=
EXTT2=
EXTT3=
EXTT4=
EXTT5=
EXTT6=
EXTT7=
EXTT8=
EXTT9=
EXTT10=
EXTT11=
PLAYORDER=
